<?xml version="1.0" encoding="UTF-8" standalone="no"?>
<svg
   version="1.1"
   viewBox="0 0 876.80001 876.79991"
   width="1753.6"
   height="1753.5999"
   id="svg2"
   sodipodi:docname="relief-logo.svg"
   inkscape:export-filename="relief-logo.png"
   inkscape:export-xdpi="95.927681"
   inkscape:export-ydpi="95.927681"
   inkscape:version="1.4.3 (0d15f75, 2025-12-25)"
   xmlns:inkscape="http://www.inkscape.org/namespaces/inkscape"
   xmlns:sodipodi="http://sodipodi.sourceforge.net/DTD/sodipodi-0.dtd"
   xmlns="http://www.w3.org/2000/svg"
   xmlns:svg="http://www.w3.org/2000/svg">
  <defs
     id="defs2">
    <linearGradient
       id="swatch12"
       inkscape:swatch="solid">
      <stop
         style="stop-color:#000000;stop-opacity:1;"
         offset="0"
         id="stop13" />
    </linearGradient>
    <linearGradient
       id="swatch11"
       inkscape:swatch="solid">
      <stop
         style="stop-color:#000000;stop-opacity:1;"
         offset="0"
         id="stop12" />
    </linearGradient>
    <linearGradient
       id="swatch6"
       inkscape:swatch="solid">
      <stop
         style="stop-color:#ffffff;stop-opacity:1;"
         offset="0"
         id="stop7" />
    </linearGradient>
    <linearGradient
       id="swatch2"
       inkscape:swatch="solid">
      <stop
         style="stop-color:#0f172a;stop-opacity:1;"
         offset="0"
         id="stop2" />
    </linearGradient>
    <filter
       inkscape:collect="always"
       style="color-interpolation-filters:sRGB"
       id="filter2"
       x="-0.048"
       y="-0.048000002"
       width="1.096"
       height="1.096">
      <feGaussianBlur
         inkscape:collect="always"
         stdDeviation="16"
         id="feGaussianBlur2" />
    </filter>
    <filter
       inkscape:collect="always"
       style="color-interpolation-filters:sRGB"
       id="filter3"
       x="-0.048"
       y="-0.048000002"
       width="1.096"
       height="1.096">
      <feGaussianBlur
         inkscape:collect="always"
         stdDeviation="16"
         id="feGaussianBlur3" />
    </filter>
  </defs>
  <sodipodi:namedview
     id="namedview2"
     pagecolor="#ffffff"
     bordercolor="#111111"
     borderopacity="1"
     inkscape:showpageshadow="0"
     inkscape:pageopacity="0"
     inkscape:pagecheckerboard="false"
     inkscape:deskcolor="#d1d1d1"
     showgrid="false"
     showguides="false"
     inkscape:lockguides="false"
     showborder="false"
     guidecolor="#e50000"
     guideopacity="1"
     guidehicolor="#2800ac"
     guidehiopacity="1"
     inkscape:zoom="0.22627417"
     inkscape:cx="1330.2446"
     inkscape:cy="1551.2155"
     inkscape:window-width="1235"
     inkscape:window-height="990"
     inkscape:window-x="386"
     inkscape:window-y="1087"
     inkscape:window-maximized="0"
     inkscape:current-layer="svg2"
     inkscape:export-bgcolor="#ffffff00">
    <inkscape:grid
       id="grid2"
       units="px"
       originx="-585.59998"
       originy="-585.60004"
       spacingx="0.5"
       spacingy="0.5"
       empcolor="#0099e5"
       empopacity="0.30196078"
       color="#0099e5"
       opacity="0.14901961"
       empspacing="5"
       enabled="false"
       visible="false" />
    <sodipodi:guide
       position="6.9000193,19.899996"
       orientation="-0.95630476,0.2923717"
       id="guide3"
       inkscape:locked="false"
       inkscape:label=""
       inkscape:color="rgb(224,27,36)" />
    <sodipodi:guide
       position="111.40002,19.899996"
       orientation="-0.95630476,0.2923717"
       id="guide4"
       inkscape:label=""
       inkscape:locked="false"
       inkscape:color="rgb(224,27,36)" />
    <sodipodi:guide
       position="262.90197,519.89999"
       orientation="0,1"
       id="guide5"
       inkscape:locked="false"
       inkscape:label=""
       inkscape:color="rgb(229,0,0)" />
    <sodipodi:guide
       position="207.40002,619.89999"
       orientation="0,1"
       id="guide6"
       inkscape:locked="false"
       inkscape:label=""
       inkscape:color="rgb(229,0,0)" />
    <sodipodi:guide
       position="215.90002,19.899996"
       orientation="-0.95630476,0.2923717"
       id="guide7"
       inkscape:label=""
       inkscape:locked="false"
       inkscape:color="rgb(224,27,36)" />
    <sodipodi:guide
       position="320.40002,19.899996"
       orientation="-0.95630476,0.2923717"
       id="guide8"
       inkscape:label=""
       inkscape:locked="false"
       inkscape:color="rgb(224,27,36)" />
    <sodipodi:guide
       position="536.90002,319.9"
       orientation="0.78801075,0.61566148"
       id="guide9"
       inkscape:label=""
       inkscape:locked="false"
       inkscape:color="rgb(224,27,36)" />
    <sodipodi:guide
       position="412.12052,319.9"
       orientation="0.78801075,0.61566148"
       id="guide10"
       inkscape:label=""
       inkscape:locked="false"
       inkscape:color="rgb(224,27,36)" />
    <sodipodi:guide
       position="217.10119,719.89999"
       orientation="0,1"
       id="guide11"
       inkscape:label=""
       inkscape:locked="false"
       inkscape:color="rgb(229,0,0)" />
    <sodipodi:guide
       position="246.90002,819.89999"
       orientation="0,1"
       id="guide12"
       inkscape:label=""
       inkscape:locked="false"
       inkscape:color="rgb(229,0,0)" />
    <sodipodi:guide
       position="343.53833,419.89999"
       orientation="0,1"
       id="guide13"
       inkscape:label=""
       inkscape:locked="false"
       inkscape:color="rgb(229,0,0)" />
    <sodipodi:guide
       position="426.97692,319.9"
       orientation="0,1"
       id="guide14"
       inkscape:label=""
       inkscape:locked="false"
       inkscape:color="rgb(229,0,0)" />
    <sodipodi:guide
       position="152.6195,119.9"
       orientation="0,1"
       id="guide15"
       inkscape:label=""
       inkscape:locked="false"
       inkscape:color="rgb(229,0,0)" />
    <sodipodi:guide
       position="5.5412893,19.899996"
       orientation="0,1"
       id="guide16"
       inkscape:label=""
       inkscape:locked="false"
       inkscape:color="rgb(229,0,0)" />
    <sodipodi:guide
       position="6.9000193,819.89999"
       orientation="-1,0"
       id="guide17"
       inkscape:locked="false"
       inkscape:label=""
       inkscape:color="rgb(229,0,0)" />
    <sodipodi:guide
       position="806.90002,569.89999"
       orientation="-1,0"
       id="guide18"
       inkscape:locked="false"
       inkscape:label=""
       inkscape:color="rgb(229,0,0)" />
    <sodipodi:guide
       position="706.90002,569.89999"
       orientation="-1,0"
       id="guide19"
       inkscape:locked="false"
       inkscape:label=""
       inkscape:color="rgb(229,0,0)" />
    <sodipodi:guide
       position="606.90002,569.89999"
       orientation="-1,0"
       id="guide20"
       inkscape:locked="false"
       inkscape:label=""
       inkscape:color="rgb(229,0,0)" />
    <sodipodi:guide
       position="506.90002,569.89999"
       orientation="-1,0"
       id="guide21"
       inkscape:locked="false"
       inkscape:label=""
       inkscape:color="rgb(229,0,0)" />
    <inkscape:page
       x="0"
       y="0"
       width="876.79999"
       height="876.79993"
       id="page1"
       margin="0"
       bleed="0" />
  </sodipodi:namedview>
  <g
     id="g13"
     inkscape:label="icon"
     style="display:inline"
     transform="translate(-617.50078,-625.69825)">
    <path
       d="m 989.58305,1397.9627 c -15.68934,51.2894 -54.51037,66.0896 -106.13636,66.0896 H 655.9008 L 813.78388,947.65542 c 15.26272,-49.9993 57.33656,-83.5851 109.15139,-83.5851 h 282.59493 c 30.3801,0 50.0033,0.5844 50.0033,49.9985 0,49.2979 -19.9965,49.99849 -50.0033,49.99849 l -263.89143,0.022 c -28.34664,0 -29.57427,3.8949 -36.20482,25.5795 L 797.54398,1342.5134 c -6.58428,21.5332 -6.49376,21.5639 13.60173,21.5639 h 61.61248 c 23.13878,0 22.80147,-0.077 27.92647,-17.0749 l 78.97586,-257.9742 c 7.33994,-23.9759 8.30788,-24.9419 35.49878,-24.9419 h 190.7193 c 150.5827,0 150.0098,-94.86069 150.0098,-149.99549 0,-50.4996 -0.7235,-149.0523 -150.0098,-150.0096 -111.9942,-0.019 -335.98277,0.014 -335.98277,0.014 l 30.57816,-99.99697 305.40461,5e-5 c 52.1821,0.39289 250.0222,0.45837 250.0222,249.99252 0,250.67539 -234.7112,249.99239 -269.9961,249.99239 l 234.3864,299.991 -124.7481,0.024 -234.4258,-300.0149 c 0,0 -29.0393,94.9683 -43.1086,140.9784"
       fill="#01fea1"
       id="path3"
       sodipodi:nodetypes="ccccccccssssccsscsccccsccccc"
       style="display:inline;opacity:0.2;mix-blend-mode:normal;fill:#02ff9d;fill-opacity:1;stroke-width:1.00002;filter:url(#filter3)"
       inkscape:label="atmosphere" />
    <path
       d="m 989.58305,1397.9627 c -15.68934,51.2894 -54.51037,66.0896 -106.13636,66.0896 H 655.9008 L 813.78388,947.65542 c 15.26272,-49.9993 57.33656,-83.5851 109.15139,-83.5851 h 282.59493 c 30.3801,0 50.0033,0.5844 50.0033,49.9985 0,49.2979 -19.9965,49.99849 -50.0033,49.99849 l -263.89143,0.022 c -28.34664,0 -29.57427,3.8949 -36.20482,25.5795 L 797.54398,1342.5134 c -6.58428,21.5332 -6.49376,21.5639 13.60173,21.5639 h 61.61248 c 23.13878,0 22.80147,-0.077 27.92647,-17.0749 l 78.97586,-257.9742 c 7.33994,-23.9759 8.30788,-24.9419 35.49878,-24.9419 h 190.7193 c 150.5827,0 150.0098,-94.86069 150.0098,-149.99549 0,-50.4996 -0.7235,-149.0523 -150.0098,-150.0096 -111.9942,-0.019 -335.98277,0.014 -335.98277,0.014 l 30.57816,-99.99697 305.40461,5e-5 c 52.1821,0.39289 250.0222,0.45837 250.0222,249.99252 0,250.67539 -234.7112,249.99239 -269.9961,249.99239 l 234.3864,299.991 -124.7481,0.024 -234.4258,-300.0149 c 0,0 -29.0393,94.9683 -43.1086,140.9784"
       fill="#01fea1"
       id="path2"
       sodipodi:nodetypes="ccccccccssssccsscsccccsccccc"
       style="display:inline;opacity:0.4;mix-blend-mode:normal;fill:#02ff9d;fill-opacity:1;stroke-width:1.00002;filter:url(#filter2)"
       inkscape:label="halo" />
    <path
       d="m 989.58305,1397.9627 c -15.68934,51.2894 -54.51037,66.0896 -106.13636,66.0896 H 655.9008 L 813.78388,947.65542 c 15.26272,-49.9993 57.33656,-83.5851 109.15139,-83.5851 h 282.59493 c 30.3801,0 50.0033,0.5844 50.0033,49.9985 0,49.2979 -19.9965,49.99849 -50.0033,49.99849 l -263.89143,0.022 c -28.34664,0 -29.57427,3.8949 -36.20482,25.5795 L 797.54398,1342.5134 c -6.58428,21.5332 -6.49376,21.5639 13.60173,21.5639 h 61.61248 c 23.13878,0 22.80147,-0.077 27.92647,-17.0749 l 78.97586,-257.9742 c 7.33994,-23.9759 8.30788,-24.9419 35.49878,-24.9419 h 190.7193 c 150.5827,0 150.0098,-94.86069 150.0098,-149.99549 0,-50.4996 -0.7235,-149.0523 -150.0098,-150.0096 -111.9942,-0.019 -335.98277,0.014 -335.98277,0.014 l 30.57816,-99.99697 305.40461,5e-5 c 52.1821,0.39289 250.0222,0.45837 250.0222,249.99252 0,250.67539 -234.7112,249.99239 -269.9961,249.99239 l 234.3864,299.991 -124.7481,0.024 -234.4258,-300.0149 c 0,0 -29.0393,94.9683 -43.1086,140.9784"
       fill="#01fea1"
       id="path1"
       sodipodi:nodetypes="ccccccccssssccsscsccccsccccc"
       style="display:inline;fill:#02ff9d;fill-opacity:1;stroke-width:1.00002"
       inkscape:label="core" />
  </g>
</svg>
